{
    "asset" : {
        "generator" : "Khronos glTF Blender I/O v1.6.16",
        "version" : "2.0"
    },
    "extensionsUsed" : [
        "KHR_materials_transmission"
    ],
    "scene" : 0,
    "scenes" : [
        {
            "name" : "Scene",
            "nodes" : [
                0,
                1,
                2,
                3
            ]
        }
    ],
    "nodes" : [
        {
            "mesh" : 0,
            "name" : "\u0421\u0444\u0435\u0440\u0430"
        },
        {
            "mesh" : 1,
            "name" : "\u0421\u0444\u0435\u0440\u0430.001",
            "scale" : [
                0.5033197999000549,
                0.5033197999000549,
                0.5033197999000549
            ],
            "translation" : [
                0,
                -0.38721591234207153,
                -0.006562981754541397
            ]
        },
        {
            "mesh" : 2,
            "name" : "\u0421\u0444\u0435\u0440\u0430.002",
            "scale" : [
                0.15925772488117218,
                0.15925772488117218,
                0.15925772488117218
            ],
            "translation" : [
                0,
                -0.6694240570068359,
                -0.02625192701816559
            ]
        },
        {
            "name" : "\u0421\u043e\u043b\u043d\u0446\u0435",
            "rotation" : [
                -0.9880177974700928,
                0.15361656248569489,
                -0.0012951617827638984,
                -0.014869637787342072
            ],
            "translation" : [
                0,
                -1.0106992721557617,
                -0.02625192701816559
            ]
        }
    ],
    "materials" : [
        {
            "alphaMode" : "BLEND",
            "doubleSided" : true,
            "extensions" : {
                "KHR_materials_transmission" : {
                    "transmissionFactor" : 0.05000000074505806
                }
            },
            "name" : "\u041c\u0430\u0442\u0435\u0440\u0438\u0430\u043b",
            "pbrMetallicRoughness" : {
                "baseColorFactor" : [
                    1,
                    0.0680345818400383,
                    0.04434686899185181,
                    0.20000000298023224
                ],
                "metallicFactor" : 0,
                "roughnessFactor" : 0.5
            }
        },
        {
            "alphaMode" : "BLEND",
            "doubleSided" : true,
            "extensions" : {
                "KHR_materials_transmission" : {
                    "transmissionFactor" : 0.05000000074505806
                }
            },
            "name" : "\u041c\u0430\u0442\u0435\u0440\u0438\u0430\u043b.001",
            "pbrMetallicRoughness" : {
                "baseColorFactor" : [
                    0.8000000715255737,
                    0.7726571559906006,
                    0.048128269612789154,
                    0.20000000298023224
                ],
                "metallicFactor" : 0,
                "roughnessFactor" : 0.5
            }
        },
        {
            "alphaMode" : "BLEND",
            "doubleSided" : true,
            "extensions" : {
                "KHR_materials_transmission" : {
                    "transmissionFactor" : 0.05000000074505806
                }
            },
            "name" : "\u041c\u0430\u0442\u0435\u0440\u0438\u0430\u043b.002",
            "pbrMetallicRoughness" : {
                "baseColorFactor" : [
                    0.800000011920929,
                    0.800000011920929,
                    0.800000011920929,
                    0.20000000298023224
                ],
                "metallicFactor" : 0,
                "roughnessFactor" : 0.5
            }
        }
    ],
    "meshes" : [
        {
            "name" : "\u0421\u0444\u0435\u0440\u0430",
            "primitives" : [
                {
                    "attributes" : {
                        "POSITION" : 0,
                        "NORMAL" : 1,
                        "TEXCOORD_0" : 2
                    },
                    "indices" : 3,
                    "material" : 0
                }
            ]
        },
        {
            "name" : "\u0421\u0444\u0435\u0440\u0430.003",
            "primitives" : [
                {
                    "attributes" : {
                        "POSITION" : 4,
                        "NORMAL" : 5,
                        "TEXCOORD_0" : 6
                    },
                    "indices" : 3,
                    "material" : 1
                }
            ]
        },
        {
            "name" : "\u0421\u0444\u0435\u0440\u0430.004",
            "primitives" : [
                {
                    "attributes" : {
                        "POSITION" : 7,
                        "NORMAL" : 8,
                        "TEXCOORD_0" : 9
                    },
                    "indices" : 3,
                    "material" : 2
                }
            ]
        }
    ],
    "accessors" : [
        {
            "bufferView" : 0,
            "componentType" : 5126,
            "count" : 7256,
            "max" : [
                1.2294429540634155,
                2.5804026126861572,
                2.268928289413452
            ],
            "min" : [
                -1.2294421195983887,
                -0.8359254598617554,
                -1.90911865234375
            ],
            "type" : "VEC3"
        },
        {
            "bufferView" : 1,
            "componentType" : 5126,
            "count" : 7256,
            "type" : "VEC3"
        },
        {
            "bufferView" : 2,
            "componentType" : 5126,
            "count" : 7256,
            "type" : "VEC2"
        },
        {
            "bufferView" : 3,
            "componentType" : 5123,
            "count" : 10824,
            "type" : "SCALAR"
        },
        {
            "bufferView" : 4,
            "componentType" : 5126,
            "count" : 7256,
            "max" : [
                1.2294429540634155,
                2.5804026126861572,
                2.268928289413452
            ],
            "min" : [
                -1.2294421195983887,
                -0.8359254598617554,
                -1.90911865234375
            ],
            "type" : "VEC3"
        },
        {
            "bufferView" : 5,
            "componentType" : 5126,
            "count" : 7256,
            "type" : "VEC3"
        },
        {
            "bufferView" : 6,
            "componentType" : 5126,
            "count" : 7256,
            "type" : "VEC2"
        },
        {
            "bufferView" : 7,
            "componentType" : 5126,
            "count" : 7256,
            "max" : [
                1.2294429540634155,
                2.5804026126861572,
                2.268928289413452
            ],
            "min" : [
                -1.2294421195983887,
                -0.8359254598617554,
                -1.90911865234375
            ],
            "type" : "VEC3"
        },
        {
            "bufferView" : 8,
            "componentType" : 5126,
            "count" : 7256,
            "type" : "VEC3"
        },
        {
            "bufferView" : 9,
            "componentType" : 5126,
            "count" : 7256,
            "type" : "VEC2"
        }
    ],
    "bufferViews" : [
        {
            "buffer" : 0,
            "byteLength" : 87072,
            "byteOffset" : 0
        },
        {
            "buffer" : 0,
            "byteLength" : 87072,
            "byteOffset" : 87072
        },
        {
            "buffer" : 0,
            "byteLength" : 58048,
            "byteOffset" : 174144
        },
        {
            "buffer" : 0,
            "byteLength" : 21648,
            "byteOffset" : 232192
        },
        {
            "buffer" : 0,
            "byteLength" : 87072,
            "byteOffset" : 253840
        },
        {
            "buffer" : 0,
            "byteLength" : 87072,
            "byteOffset" : 340912
        },
        {
            "buffer" : 0,
            "byteLength" : 58048,
            "byteOffset" : 427984
        },
        {
            "buffer" : 0,
            "byteLength" : 87072,
            "byteOffset" : 486032
        },
        {
            "buffer" : 0,
            "byteLength" : 87072,
            "byteOffset" : 573104
        },
        {
            "buffer" : 0,
            "byteLength" : 58048,
            "byteOffset" : 660176
        }
    ],
    "buffers" : [
        {
            "byteLength" : 718224,
            "uri" : "data:application/octet-stream;base64,"
        }
    ]
}
