{
    "asset" : {
        "generator" : "Khronos glTF Blender I/O v1.6.16",
        "version" : "2.0"
    },
    "extensionsUsed" : [
        "KHR_materials_transmission"
    ],
    "scene" : 0,
    "scenes" : [
        {
            "name" : "Scene",
            "nodes" : [
                0,
                1,
                2,
                3,
                4,
                5,
                6,
                7,
                8
            ]
        }
    ],
    "nodes" : [
        {
            "mesh" : 0,
            "name" : "\u0421\u0444\u0435\u0440\u0430.004",
            "rotation" : [
                -0.9744549989700317,
                -0.0667092353105545,
                -0.07044366747140884,
                0.2025464028120041
            ],
            "scale" : [
                -0.8701461553573608,
                -0.8701461553573608,
                -0.8701461553573608
            ],
            "translation" : [
                0.0648803785443306,
                0.3988605737686157,
                -0.07969167828559875
            ]
        },
        {
            "mesh" : 1,
            "name" : "\u0421\u0444\u0435\u0440\u0430.005",
            "rotation" : [
                -0.9744549989700317,
                -0.0667092353105545,
                -0.07044366747140884,
                0.2025464028120041
            ],
            "scale" : [
                -0.21031077206134796,
                -0.21031077206134796,
                -0.21031077206134796
            ],
            "translation" : [
                -0.08999691158533096,
                2.642404079437256,
                0.4480140805244446
            ]
        },
        {
            "mesh" : 2,
            "name" : "\u0421\u0444\u0435\u0440\u0430.007",
            "rotation" : [
                -0.9744549989700317,
                -0.0667092353105545,
                -0.07044366747140884,
                0.2025464028120041
            ],
            "scale" : [
                -0.19652405381202698,
                -0.19652405381202698,
                -0.1965239942073822
            ],
            "translation" : [
                -0.050689518451690674,
                3.6909337043762207,
                -0.3076891303062439
            ]
        },
        {
            "mesh" : 3,
            "name" : "\u0421\u0444\u0435\u0440\u0430.011",
            "rotation" : [
                -0.9744549989700317,
                -0.0667092353105545,
                -0.07044366747140884,
                0.2025464028120041
            ],
            "scale" : [
                0.2983873188495636,
                0.2983873188495636,
                0.2983873188495636
            ],
            "translation" : [
                0.05046374350786209,
                2.7434439659118652,
                -1.1327356100082397
            ]
        },
        {
            "mesh" : 4,
            "name" : "\u0421\u0444\u0435\u0440\u0430.010",
            "rotation" : [
                -0.9744549989700317,
                -0.0667092353105545,
                -0.07044366747140884,
                0.2025464028120041
            ],
            "scale" : [
                0.16231150925159454,
                0.16231149435043335,
                0.16231150925159454
            ],
            "translation" : [
                -0.05474770814180374,
                3.150707721710205,
                0.026518821716308594
            ]
        },
        {
            "name" : "\u0422\u043e\u0447\u0435\u0447\u043d\u044b\u0439 \u0438\u0441\u0442\u043e\u0447\u043d\u0438\u043a",
            "translation" : [
                -0.33082276582717896,
                3.039665699005127,
                1.8821351528167725
            ]
        },
        {
            "name" : "\u0422\u043e\u0447\u0435\u0447\u043d\u044b\u0439 \u0438\u0441\u0442\u043e\u0447\u043d\u0438\u043a.001",
            "translation" : [
                -0.20031388103961945,
                1.0697052478790283,
                1.9121694564819336
            ]
        },
        {
            "name" : "\u0422\u043e\u0447\u0435\u0447\u043d\u044b\u0439 \u0438\u0441\u0442\u043e\u0447\u043d\u0438\u043a.002",
            "translation" : [
                -0.07626333832740784,
                3.399773359298706,
                -2.2711687088012695
            ]
        },
        {
            "name" : "\u0422\u043e\u0447\u0435\u0447\u043d\u044b\u0439 \u0438\u0441\u0442\u043e\u0447\u043d\u0438\u043a.003",
            "translation" : [
                0.0633990466594696,
                0.847299337387085,
                -1.7936937808990479
            ]
        }
    ],
    "materials" : [
        {
            "alphaMode" : "BLEND",
            "doubleSided" : true,
            "extensions" : {
                "KHR_materials_transmission" : {
                    "transmissionFactor" : 0.029999999329447746
                }
            },
            "name" : "\u041c\u0430\u0442\u0435\u0440\u0438\u0430\u043b.003",
            "pbrMetallicRoughness" : {
                "baseColorFactor" : [
                    0.800000011920929,
                    0.800000011920929,
                    0.800000011920929,
                    0.20000000298023224
                ],
                "metallicFactor" : 0,
                "roughnessFactor" : 0.5
            }
        },
        {
            "alphaMode" : "BLEND",
            "doubleSided" : true,
            "extensions" : {
                "KHR_materials_transmission" : {
                    "transmissionFactor" : 0.029999999329447746
                }
            },
            "name" : "\u041c\u0430\u0442\u0435\u0440\u0438\u0430\u043b.011",
            "pbrMetallicRoughness" : {
                "baseColorFactor" : [
                    0.800000011920929,
                    0.800000011920929,
                    0.800000011920929,
                    0.20000000298023224
                ],
                "metallicFactor" : 0,
                "roughnessFactor" : 0.5
            }
        },
        {
            "alphaMode" : "BLEND",
            "doubleSided" : true,
            "extensions" : {
                "KHR_materials_transmission" : {
                    "transmissionFactor" : 0.029999999329447746
                }
            },
            "name" : "\u041c\u0430\u0442\u0435\u0440\u0438\u0430\u043b.009",
            "pbrMetallicRoughness" : {
                "baseColorFactor" : [
                    0.800000011920929,
                    0.800000011920929,
                    0.800000011920929,
                    0.20000000298023224
                ],
                "metallicFactor" : 0,
                "roughnessFactor" : 0.5
            }
        },
        {
            "alphaMode" : "BLEND",
            "doubleSided" : true,
            "extensions" : {
                "KHR_materials_transmission" : {
                    "transmissionFactor" : 0.029999999329447746
                }
            },
            "name" : "\u041c\u0430\u0442\u0435\u0440\u0438\u0430\u043b.007",
            "pbrMetallicRoughness" : {
                "baseColorFactor" : [
                    0.800000011920929,
                    0.800000011920929,
                    0.800000011920929,
                    0.20000000298023224
                ],
                "metallicFactor" : 0,
                "roughnessFactor" : 0.5
            }
        },
        {
            "alphaMode" : "BLEND",
            "doubleSided" : true,
            "extensions" : {
                "KHR_materials_transmission" : {
                    "transmissionFactor" : 0.029999999329447746
                }
            },
            "name" : "\u041c\u0430\u0442\u0435\u0440\u0438\u0430\u043b.012",
            "pbrMetallicRoughness" : {
                "baseColorFactor" : [
                    0.800000011920929,
                    0.800000011920929,
                    0.800000011920929,
                    0.20000000298023224
                ],
                "metallicFactor" : 0,
                "roughnessFactor" : 0.5
            }
        }
    ],
    "meshes" : [
        {
            "name" : "\u0421\u0444\u0435\u0440\u0430.001",
            "primitives" : [
                {
                    "attributes" : {
                        "POSITION" : 0,
                        "NORMAL" : 1,
                        "TEXCOORD_0" : 2
                    },
                    "indices" : 3,
                    "material" : 0
                }
            ]
        },
        {
            "name" : "\u0421\u0444\u0435\u0440\u0430.002",
            "primitives" : [
                {
                    "attributes" : {
                        "POSITION" : 4,
                        "NORMAL" : 5,
                        "TEXCOORD_0" : 6
                    },
                    "indices" : 7,
                    "material" : 1
                }
            ]
        },
        {
            "name" : "\u0421\u0444\u0435\u0440\u0430.004",
            "primitives" : [
                {
                    "attributes" : {
                        "POSITION" : 8,
                        "NORMAL" : 9,
                        "TEXCOORD_0" : 10
                    },
                    "indices" : 11,
                    "material" : 2
                }
            ]
        },
        {
            "name" : "\u0421\u0444\u0435\u0440\u0430.008",
            "primitives" : [
                {
                    "attributes" : {
                        "POSITION" : 12,
                        "NORMAL" : 13,
                        "TEXCOORD_0" : 14
                    },
                    "indices" : 15,
                    "material" : 3
                }
            ]
        },
        {
            "name" : "\u0421\u0444\u0435\u0440\u0430.007",
            "primitives" : [
                {
                    "attributes" : {
                        "POSITION" : 16,
                        "NORMAL" : 17,
                        "TEXCOORD_0" : 18
                    },
                    "indices" : 11,
                    "material" : 4
                }
            ]
        }
    ],
    "accessors" : [
        {
            "bufferView" : 0,
            "componentType" : 5126,
            "count" : 5232,
            "max" : [
                0.9999997019767761,
                2.1652488708496094,
                0.9999994039535522
            ],
            "min" : [
                -0.9999990463256836,
                -1.0000003576278687,
                -1.697819709777832
            ],
            "type" : "VEC3"
        },
        {
            "bufferView" : 1,
            "componentType" : 5126,
            "count" : 5232,
            "type" : "VEC3"
        },
        {
            "bufferView" : 2,
            "componentType" : 5126,
            "count" : 5232,
            "type" : "VEC2"
        },
        {
            "bufferView" : 3,
            "componentType" : 5123,
            "count" : 8046,
            "type" : "SCALAR"
        },
        {
            "bufferView" : 4,
            "componentType" : 5126,
            "count" : 3364,
            "max" : [
                1.3086148500442505,
                0.9999997019767761,
                2.145604133605957
            ],
            "min" : [
                -1.1077327728271484,
                -2.3091800212860107,
                -0.9999987483024597
            ],
            "type" : "VEC3"
        },
        {
            "bufferView" : 5,
            "componentType" : 5126,
            "count" : 3364,
            "type" : "VEC3"
        },
        {
            "bufferView" : 6,
            "componentType" : 5126,
            "count" : 3364,
            "type" : "VEC2"
        },
        {
            "bufferView" : 7,
            "componentType" : 5123,
            "count" : 5088,
            "type" : "SCALAR"
        },
        {
            "bufferView" : 8,
            "componentType" : 5126,
            "count" : 1984,
            "max" : [
                0.9999997019767761,
                1,
                0.9999994039535522
            ],
            "min" : [
                -0.9999990463256836,
                -1,
                -0.9999987483024597
            ],
            "type" : "VEC3"
        },
        {
            "bufferView" : 9,
            "componentType" : 5126,
            "count" : 1984,
            "type" : "VEC3"
        },
        {
            "bufferView" : 10,
            "componentType" : 5126,
            "count" : 1984,
            "type" : "VEC2"
        },
        {
            "bufferView" : 11,
            "componentType" : 5123,
            "count" : 2880,
            "type" : "SCALAR"
        },
        {
            "bufferView" : 12,
            "componentType" : 5126,
            "count" : 4462,
            "max" : [
                1.3818016052246094,
                1.9750094413757324,
                0.999998927116394
            ],
            "min" : [
                -1.2855327129364014,
                -1.5292772054672241,
                -2.5618505477905273
            ],
            "type" : "VEC3"
        },
        {
            "bufferView" : 13,
            "componentType" : 5126,
            "count" : 4462,
            "type" : "VEC3"
        },
        {
            "bufferView" : 14,
            "componentType" : 5126,
            "count" : 4462,
            "type" : "VEC2"
        },
        {
            "bufferView" : 15,
            "componentType" : 5123,
            "count" : 6774,
            "type" : "SCALAR"
        },
        {
            "bufferView" : 16,
            "componentType" : 5126,
            "count" : 1984,
            "max" : [
                0.9999997019767761,
                1,
                0.9999994039535522
            ],
            "min" : [
                -0.9999990463256836,
                -1,
                -0.9999987483024597
            ],
            "type" : "VEC3"
        },
        {
            "bufferView" : 17,
            "componentType" : 5126,
            "count" : 1984,
            "type" : "VEC3"
        },
        {
            "bufferView" : 18,
            "componentType" : 5126,
            "count" : 1984,
            "type" : "VEC2"
        }
    ],
    "bufferViews" : [
        {
            "buffer" : 0,
            "byteLength" : 62784,
            "byteOffset" : 0
        },
        {
            "buffer" : 0,
            "byteLength" : 62784,
            "byteOffset" : 62784
        },
        {
            "buffer" : 0,
            "byteLength" : 41856,
            "byteOffset" : 125568
        },
        {
            "buffer" : 0,
            "byteLength" : 16092,
            "byteOffset" : 167424
        },
        {
            "buffer" : 0,
            "byteLength" : 40368,
            "byteOffset" : 183516
        },
        {
            "buffer" : 0,
            "byteLength" : 40368,
            "byteOffset" : 223884
        },
        {
            "buffer" : 0,
            "byteLength" : 26912,
            "byteOffset" : 264252
        },
        {
            "buffer" : 0,
            "byteLength" : 10176,
            "byteOffset" : 291164
        },
        {
            "buffer" : 0,
            "byteLength" : 23808,
            "byteOffset" : 301340
        },
        {
            "buffer" : 0,
            "byteLength" : 23808,
            "byteOffset" : 325148
        },
        {
            "buffer" : 0,
            "byteLength" : 15872,
            "byteOffset" : 348956
        },
        {
            "buffer" : 0,
            "byteLength" : 5760,
            "byteOffset" : 364828
        },
        {
            "buffer" : 0,
            "byteLength" : 53544,
            "byteOffset" : 370588
        },
        {
            "buffer" : 0,
            "byteLength" : 53544,
            "byteOffset" : 424132
        },
        {
            "buffer" : 0,
            "byteLength" : 35696,
            "byteOffset" : 477676
        },
        {
            "buffer" : 0,
            "byteLength" : 13548,
            "byteOffset" : 513372
        },
        {
            "buffer" : 0,
            "byteLength" : 23808,
            "byteOffset" : 526920
        },
        {
            "buffer" : 0,
            "byteLength" : 23808,
            "byteOffset" : 550728
        },
        {
            "buffer" : 0,
            "byteLength" : 15872,
            "byteOffset" : 574536
        }
    ],
    "buffers" : [
        {
            "byteLength" : 590408,
            "uri" : "data:application/octet-stream;base64,"
        }
    ]
}
